<svg width="104" height="21" viewBox="0 0 104 21" fill="none" xmlns="http://www.w3.org/2000/svg">
<path d="M5.85496 16.2745C4.92488 16.2745 4.07865 16.0915 3.31629 15.7255C2.56917 15.3444 1.97453 14.765 1.53235 13.9874C1.09018 13.2097 0.869096 12.2187 0.869096 11.0141C0.869096 9.88583 1.09781 8.91 1.55522 8.08665C2.01264 7.2633 2.61491 6.63053 3.36203 6.18836C4.10915 5.73094 4.90201 5.50223 5.74061 5.50223C6.73168 5.50223 7.4788 5.66995 7.98196 6.00539C8.50037 6.32559 8.9273 6.6839 9.26274 7.08033L9.12551 7.46913L9.42283 6.00539H12.3961V16H9.19412V13.8273L9.4457 14.5134C9.41521 14.5134 9.32373 14.6049 9.17125 14.7878C9.01878 14.9556 8.79007 15.1614 8.48512 15.4054C8.19543 15.6341 7.82949 15.8323 7.38732 16C6.96039 16.183 6.44961 16.2745 5.85496 16.2745ZM6.7698 13.6672C7.15098 13.6672 7.49405 13.6138 7.799 13.5071C8.10394 13.3851 8.37077 13.2174 8.59948 13.0039C8.82819 12.7752 9.0264 12.4931 9.19412 12.1577V9.71049C9.07214 9.37505 8.88918 9.09297 8.64522 8.86426C8.40126 8.62031 8.11156 8.43734 7.77612 8.31536C7.44068 8.17813 7.06712 8.10952 6.65545 8.10952C6.19803 8.10952 5.7711 8.2315 5.37467 8.47546C4.99349 8.70417 4.68855 9.02436 4.45984 9.43604C4.23113 9.84771 4.11677 10.3204 4.11677 10.854C4.11677 11.3877 4.23875 11.868 4.48271 12.2949C4.72666 12.7218 5.04686 13.0573 5.44329 13.3012C5.85496 13.5452 6.29714 13.6672 6.7698 13.6672ZM16.29 6.00539L16.5873 8.74991L16.5187 8.33823C16.8084 7.74359 17.2049 7.24042 17.708 6.82875C18.2112 6.40182 18.7067 6.07401 19.1946 5.8453C19.6978 5.61659 20.079 5.50223 20.3382 5.50223L20.1781 8.70417C19.431 8.61268 18.7906 8.73466 18.2569 9.0701C17.7233 9.40554 17.3116 9.84771 17.0219 10.3966C16.7322 10.9455 16.5873 11.5097 16.5873 12.0891V16H13.4083V6.00539H16.29ZM21.1651 20.8258L19.3126 18.836C19.77 18.5006 20.1207 18.0889 20.3646 17.601C20.6238 17.1131 20.7534 16.5184 20.7534 15.817V6.00539H23.9554V16C23.9554 17.1893 23.7419 18.1727 23.315 18.9504C22.888 19.7432 22.1714 20.3684 21.1651 20.8258ZM20.6391 2.4604C20.6391 1.98773 20.822 1.59892 21.188 1.29398C21.5692 0.989031 21.9732 0.836557 22.4001 0.836557C22.8271 0.836557 23.2159 0.989031 23.5666 1.29398C23.9325 1.59892 24.1155 1.98773 24.1155 2.4604C24.1155 2.93306 23.9325 3.32187 23.5666 3.62681C23.2159 3.91651 22.8271 4.06136 22.4001 4.06136C21.9732 4.06136 21.5692 3.91651 21.188 3.62681C20.822 3.32187 20.6391 2.93306 20.6391 2.4604ZM28.1847 16.4803C27.2851 16.4803 26.5304 16.2058 25.9205 15.6569C25.3106 15.0928 24.9904 14.3685 24.9599 13.4842V6.00539H28.1618V12.2949C28.1923 12.7371 28.3067 13.0954 28.5049 13.3698C28.7031 13.629 29.0385 13.7586 29.5112 13.7586C29.9839 13.7586 30.3879 13.5985 30.7234 13.2784C31.0741 12.9582 31.3409 12.5236 31.5239 11.9747C31.7221 11.4106 31.8212 10.7778 31.8212 10.0764V6.00539H35.0231V16H32.1185L31.8669 14.1703L31.9127 14.3762C31.684 14.7878 31.3943 15.1538 31.0436 15.474C30.6929 15.7942 30.2736 16.0381 29.7857 16.2058C29.313 16.3888 28.7793 16.4803 28.1847 16.4803ZM38.9337 6.00539L39.1853 7.78933L39.1395 7.62923C39.4902 7.00409 39.9857 6.50093 40.6261 6.11975C41.2665 5.72332 42.0518 5.5251 42.9818 5.5251C43.9272 5.5251 44.7124 5.80718 45.3376 6.37133C45.9779 6.92023 46.3058 7.63685 46.321 8.5212V16H43.1191V9.71049C43.1038 9.26832 42.9818 8.91763 42.7531 8.65842C42.5397 8.38397 42.1737 8.24675 41.6553 8.24675C41.1674 8.24675 40.7405 8.40684 40.3746 8.72704C40.0086 9.04723 39.7265 9.48178 39.5283 10.0307C39.3301 10.5796 39.231 11.2123 39.231 11.929V16H36.0291V6.00539H38.9337ZM50.5693 16.2058C49.7459 16.2058 48.9759 16.061 48.2593 15.7713C47.5579 15.4816 46.9633 15.0775 46.4754 14.5591L47.8019 12.7981C48.2898 13.2402 48.7396 13.5604 49.1513 13.7586C49.5782 13.9416 49.9594 14.0331 50.2948 14.0331C50.554 14.0331 50.7827 14.0102 50.981 13.9645C51.1944 13.9035 51.3621 13.8196 51.4841 13.7129C51.6061 13.5909 51.6671 13.4385 51.6671 13.2555C51.6671 12.9963 51.5604 12.7904 51.3469 12.638C51.1487 12.4855 50.8895 12.3635 50.5693 12.272C50.2491 12.1653 49.906 12.0586 49.5401 11.9518C48.6253 11.6621 47.962 11.2428 47.5503 10.6939C47.1539 10.1298 46.9557 9.5199 46.9557 8.86426C46.9557 8.3611 47.0853 7.85794 47.3445 7.35478C47.6189 6.83637 48.0459 6.40945 48.6253 6.07401C49.2199 5.72332 49.9823 5.54797 50.9123 5.54797C51.751 5.54797 52.4599 5.63183 53.0393 5.79955C53.6187 5.96727 54.1676 6.24173 54.6861 6.62291L53.4739 8.49833C53.1842 8.26962 52.8564 8.07903 52.4904 7.92655C52.1398 7.75883 51.8119 7.66735 51.507 7.6521C51.2325 7.63685 50.9962 7.66735 50.798 7.74359C50.615 7.81982 50.4702 7.91893 50.3634 8.04091C50.2567 8.16289 50.2033 8.29249 50.2033 8.42971C50.1881 8.71941 50.2948 8.94812 50.5235 9.11584C50.7675 9.28356 51.0724 9.41317 51.4384 9.50465C51.8043 9.59613 52.1626 9.70286 52.5133 9.82484C53.0012 9.97732 53.4205 10.1832 53.7712 10.4424C54.1219 10.7016 54.3887 11.0141 54.5717 11.3801C54.7699 11.7308 54.869 12.1577 54.869 12.6608C54.869 13.2707 54.7089 13.8501 54.3887 14.399C54.0838 14.9327 53.6111 15.3672 52.9707 15.7027C52.3456 16.0381 51.5451 16.2058 50.5693 16.2058ZM59.4722 16.2745C58.5421 16.2745 57.6958 16.0915 56.9335 15.7255C56.1864 15.3444 55.5917 14.765 55.1495 13.9874C54.7074 13.2097 54.4863 12.2187 54.4863 11.0141C54.4863 9.88583 54.715 8.91 55.1724 8.08665C55.6298 7.2633 56.2321 6.63053 56.9792 6.18836C57.7263 5.73094 58.5192 5.50223 59.3578 5.50223C60.3489 5.50223 61.096 5.66995 61.5992 6.00539C62.1176 6.32559 62.5445 6.6839 62.8799 7.08033L62.7427 7.46913L63.04 6.00539H66.0133V16H62.8113V13.8273L63.0629 14.5134C63.0324 14.5134 62.9409 14.6049 62.7884 14.7878C62.636 14.9556 62.4073 15.1614 62.1023 15.4054C61.8126 15.6341 61.4467 15.8323 61.0045 16C60.5776 16.183 60.0668 16.2745 59.4722 16.2745ZM60.387 13.6672C60.7682 13.6672 61.1112 13.6138 61.4162 13.5071C61.7211 13.3851 61.988 13.2174 62.2167 13.0039C62.4454 12.7752 62.6436 12.4931 62.8113 12.1577V9.71049C62.6893 9.37505 62.5064 9.09297 62.2624 8.86426C62.0185 8.62031 61.7288 8.43734 61.3933 8.31536C61.0579 8.17813 60.6843 8.10952 60.2726 8.10952C59.8152 8.10952 59.3883 8.2315 58.9919 8.47546C58.6107 8.70417 58.3057 9.02436 58.077 9.43604C57.8483 9.84771 57.734 10.3204 57.734 10.854C57.734 11.3877 57.8559 11.868 58.0999 12.2949C58.3439 12.7218 58.6641 13.0573 59.0605 13.3012C59.4722 13.5452 59.9143 13.6672 60.387 13.6672ZM67.6887 20.8258L65.8362 18.836C66.2936 18.5006 66.6443 18.0889 66.8882 17.601C67.1474 17.1131 67.2771 16.5184 67.2771 15.817V6.00539H70.479V16C70.479 17.1893 70.2655 18.1727 69.8386 18.9504C69.4117 19.7432 68.695 20.3684 67.6887 20.8258ZM67.1627 2.4604C67.1627 1.98773 67.3457 1.59892 67.7116 1.29398C68.0928 0.989031 68.4968 0.836557 68.9238 0.836557C69.3507 0.836557 69.7395 0.989031 70.0902 1.29398C70.4561 1.59892 70.6391 1.98773 70.6391 2.4604C70.6391 2.93306 70.4561 3.32187 70.0902 3.62681C69.7395 3.91651 69.3507 4.06136 68.9238 4.06136C68.4968 4.06136 68.0928 3.91651 67.7116 3.62681C67.3457 3.32187 67.1627 2.93306 67.1627 2.4604ZM76.4008 16.2745C75.181 16.2745 74.1442 16.0457 73.2903 15.5883C72.4517 15.1309 71.8113 14.4981 71.3692 13.69C70.927 12.8819 70.7059 11.9518 70.7059 10.8998C70.7059 9.89346 70.9651 8.98624 71.4835 8.17813C72.0019 7.37003 72.6957 6.72964 73.5648 6.25697C74.4339 5.76906 75.4021 5.5251 76.4694 5.5251C77.9026 5.5251 79.0767 5.9444 79.9915 6.78301C80.9216 7.60636 81.5239 8.80327 81.7983 10.3737L74.0222 12.8438L73.3132 11.1056L78.9394 9.20733L78.2762 9.50465C78.1542 9.10822 77.9331 8.76516 77.6129 8.47546C77.308 8.17051 76.8429 8.01804 76.2178 8.01804C75.7451 8.01804 75.3258 8.13239 74.9599 8.3611C74.6092 8.57456 74.3348 8.88713 74.1365 9.29881C73.9536 9.69524 73.8621 10.1679 73.8621 10.7168C73.8621 11.3419 73.9764 11.868 74.2052 12.2949C74.4339 12.7066 74.7464 13.0192 75.1429 13.2326C75.5393 13.4461 75.9815 13.5528 76.4694 13.5528C76.8201 13.5528 77.1555 13.4918 77.4757 13.3698C77.8111 13.2479 78.139 13.0878 78.4592 12.8896L79.8772 15.2681C79.3435 15.5731 78.7641 15.817 78.139 16C77.5291 16.183 76.9497 16.2745 76.4008 16.2745ZM86.7552 16.2745C85.5355 16.2745 84.4986 16.0457 83.6448 15.5883C82.8062 15.1309 82.1658 14.4981 81.7236 13.69C81.2815 12.8819 81.0604 11.9518 81.0604 10.8998C81.0604 9.89346 81.3196 8.98624 81.838 8.17813C82.3564 7.37003 83.0501 6.72964 83.9192 6.25697C84.7883 5.76906 85.7565 5.5251 86.8239 5.5251C88.2571 5.5251 89.4311 5.9444 90.346 6.78301C91.2761 7.60636 91.8783 8.80327 92.1528 10.3737L84.3767 12.8438L83.6677 11.1056L89.2939 9.20733L88.6307 9.50465C88.5087 9.10822 88.2876 8.76516 87.9674 8.47546C87.6625 8.17051 87.1974 8.01804 86.5723 8.01804C86.0996 8.01804 85.6803 8.13239 85.3144 8.3611C84.9637 8.57456 84.6892 8.88713 84.491 9.29881C84.308 9.69524 84.2166 10.1679 84.2166 10.7168C84.2166 11.3419 84.3309 11.868 84.5596 12.2949C84.7883 12.7066 85.1009 13.0192 85.4973 13.2326C85.8938 13.4461 86.3359 13.5528 86.8239 13.5528C87.1745 13.5528 87.51 13.4918 87.8302 13.3698C88.1656 13.2479 88.4934 13.0878 88.8136 12.8896L90.2316 15.2681C89.698 15.5731 89.1186 15.817 88.4934 16C87.8835 16.183 87.3041 16.2745 86.7552 16.2745ZM96.3199 16.2058L90.3278 6.00539H94.1243L97.5321 12.9124L95.5652 12.8438L98.5156 6.00539H102.083L96.4114 16.2058H96.3199ZM100.372 14.3533C100.372 13.8806 100.54 13.4842 100.875 13.164C101.226 12.8438 101.607 12.6837 102.019 12.6837C102.4 12.6837 102.758 12.8438 103.094 13.164C103.445 13.4842 103.62 13.8806 103.62 14.3533C103.62 14.8565 103.445 15.2605 103.094 15.5655C102.758 15.8552 102.4 16 102.019 16C101.607 16 101.226 15.8552 100.875 15.5655C100.54 15.2605 100.372 14.8565 100.372 14.3533Z" fill="#00201C"/>
</svg>
